<svg xmlns="http://www.w3.org/2000/svg" viewBox="0 0 64 64" role="img" aria-label="黑白农场助手">
  <rect width="64" height="64" rx="14" fill="#0f766e"/>
  <circle cx="48" cy="16" r="9" fill="#fde68a" opacity="0.95"/>
  <path d="M32 50V16" fill="none" stroke="#facc15" stroke-width="4" stroke-linecap="round"/>
  <path d="M32 25c-7-1-12-5-14-11 7 0 12 4 14 11Z" fill="#f59e0b"/>
  <path d="M32 25c7-1 12-5 14-11-7 0-12 4-14 11Z" fill="#fbbf24"/>
  <path d="M32 34c-8-1-14-6-16-13 8 0 14 5 16 13Z" fill="#f59e0b"/>
  <path d="M32 34c8-1 14-6 16-13-8 0-14 5-16 13Z" fill="#fbbf24"/>
  <path d="M32 43c-7-1-13-5-16-12 8 0 14 4 16 12Z" fill="#f59e0b"/>
  <path d="M32 43c7-1 13-5 16-12-8 0-14 4-16 12Z" fill="#fbbf24"/>
  <path d="M17 52c8-5 22-5 30 0" fill="none" stroke="#bbf7d0" stroke-width="4" stroke-linecap="round"/>
</svg>
